<?xml version="1.0" standalone="no"?>
<!DOCTYPE svg PUBLIC "-//W3C//DTD SVG 20010904//EN"
 "http://www.w3.org/TR/2001/REC-SVG-20010904/DTD/svg10.dtd">
<svg version="1.0" xmlns="http://www.w3.org/2000/svg"
 width="1000.000000pt" height="1000.000000pt" viewBox="0 0 1000.000000 1000.000000"
 preserveAspectRatio="xMidYMid meet">

<g transform="translate(0.000000,1000.000000) scale(0.100000,-0.100000)"
fill="#000000" stroke="none">
<path d="M6333 7595 c-117 -33 -243 -126 -299 -220 -98 -167 -89 -375 22 -537
14 -20 127 -134 252 -254 125 -119 290 -279 367 -353 77 -75 255 -247 395
-381 140 -135 287 -275 325 -313 l70 -67 -175 5 c-96 2 -780 7 -1520 10 -740
3 -1624 7 -1965 10 -1819 14 -2372 16 -2425 5 -123 -24 -265 -122 -326 -226
-62 -106 -84 -230 -60 -344 37 -177 152 -310 322 -371 75 -28 -22 -26 2259
-39 3091 -17 3875 -23 3874 -29 -1 -3 -42 -44 -93 -91 -50 -47 -165 -155 -256
-241 -91 -85 -325 -306 -520 -489 -512 -481 -523 -493 -564 -581 -44 -92 -60
-185 -47 -271 19 -126 59 -205 149 -291 102 -97 231 -144 367 -134 135 10 222
53 347 172 35 33 176 166 313 296 269 253 890 838 1150 1084 88 83 291 274
450 424 160 150 303 290 319 310 80 102 118 251 96 379 -25 148 -46 177 -373
492 -160 156 -346 336 -412 400 -104 101 -655 631 -1388 1335 -232 223 -297
275 -380 301 -74 23 -210 27 -274 9z"/>
</g>
</svg>
