<?xml version="1.0" standalone="no"?>
<!DOCTYPE svg PUBLIC "-//W3C//DTD SVG 20010904//EN"
 "http://www.w3.org/TR/2001/REC-SVG-20010904/DTD/svg10.dtd">
<svg version="1.0" xmlns="http://www.w3.org/2000/svg"
 width="128.000000pt" height="128.000000pt" viewBox="0 0 128.000000 128.000000"
 preserveAspectRatio="xMidYMid meet">

<g transform="translate(0.000000,128.000000) scale(0.100000,-0.100000)"
fill="#000000" stroke="none">
<path d="M0 640 l0 -640 70 0 c67 0 70 1 60 19 -15 28 -12 35 6 16 15 -15 18
-15 35 1 18 16 19 16 19 1 0 -10 -4 -17 -10 -17 -5 0 -10 -4 -10 -10 0 -5 25
-10 55 -10 52 0 55 1 45 19 -15 30 -12 36 9 17 16 -15 19 -15 31 -1 21 25 34
17 16 -10 l-16 -25 54 0 c45 0 54 3 50 15 -4 8 -9 15 -13 15 -4 0 -8 7 -8 15
0 12 5 11 22 -5 l21 -20 22 22 c26 27 31 5 5 -24 -15 -17 -14 -18 40 -18 46 0
55 3 51 15 -4 8 -10 15 -14 15 -4 0 -10 7 -14 15 -4 13 -2 13 14 5 10 -5 22
-15 25 -21 5 -7 14 -4 26 7 21 19 24 13 9 -17 -10 -18 -7 -19 45 -19 53 0 72
11 39 24 -8 3 -12 11 -9 17 5 7 13 5 25 -6 17 -15 20 -15 38 2 10 10 25 19 33
21 8 2 -1 -11 -19 -27 l-33 -31 67 0 67 0 -23 25 c-13 14 -19 25 -13 25 6 0
16 -6 22 -14 9 -11 17 -11 35 -3 14 7 22 16 19 21 -4 5 -1 6 6 1 9 -5 7 -13
-10 -31 l-22 -24 63 0 c62 0 63 0 45 20 -16 17 -16 20 -2 20 9 0 19 -5 22 -10
4 -6 12 -4 22 5 8 9 18 13 22 10 3 -4 -5 -15 -18 -26 l-23 -19 68 0 67 0 -21
23 c-24 25 -19 45 5 22 21 -21 39 -18 61 10 11 13 22 21 26 18 3 -4 -8 -22
-26 -40 l-32 -33 67 0 67 0 0 67 0 66 -25 -23 c-28 -27 -32 -21 -9 15 12 18
13 28 4 44 -12 23 -1 28 18 9 9 -9 12 0 12 42 l0 53 -25 -23 c-28 -26 -33 -16
-9 18 10 15 12 27 6 35 -5 7 -12 21 -15 32 -6 15 -1 14 18 -8 l25 -28 0 60 c0
50 -4 64 -25 87 -33 35 -33 55 0 24 l25 -23 0 57 0 57 -25 -27 c-19 -20 -25
-23 -25 -10 0 9 4 16 9 16 17 0 21 32 6 53 -23 33 -18 43 10 17 l25 -23 0 53
c0 42 -3 51 -12 42 -7 -7 -19 -12 -27 -12 -11 0 -10 4 4 20 17 19 17 21 2 38
-28 30 -20 49 8 22 l25 -23 0 50 c0 51 0 51 -24 40 -13 -7 -22 -16 -19 -21 4
-5 1 -6 -6 -1 -9 5 -6 15 13 34 26 28 26 28 6 46 -11 10 -20 22 -20 27 0 5 10
-1 22 -12 l23 -21 3 46 c4 55 -1 63 -24 41 -25 -25 -31 -9 -6 17 l22 23 -22
22 c-12 12 -19 24 -16 27 3 4 15 -4 27 -16 l21 -23 0 59 0 59 -21 -23 c-12
-12 -24 -20 -27 -17 -3 4 4 17 16 29 l22 23 -25 24 c-35 33 -31 46 5 20 l30
-21 0 60 0 61 -65 0 -64 0 30 -31 30 -31 23 21 c12 12 26 21 32 21 5 0 -7 -15
-26 -34 l-35 -33 -31 36 c-32 36 -32 36 -53 17 -12 -11 -24 -16 -29 -12 -4 4
3 16 16 27 23 18 22 18 -109 18 l-132 0 23 -24 c26 -28 17 -34 -12 -8 -17 15
-20 15 -50 -13 l-32 -29 22 38 21 37 -56 0 -56 0 23 -25 c25 -27 16 -34 -16
-11 -17 13 -22 12 -45 -11 -17 -16 -29 -21 -33 -14 -4 6 0 11 9 11 9 0 14 4
10 9 -3 5 5 17 17 25 21 15 19 16 -42 16 l-63 0 23 -25 c26 -28 16 -33 -17
-10 -18 13 -22 13 -33 0 -7 -8 -16 -12 -21 -9 -5 3 -9 0 -9 -7 0 -7 -3 -9 -7
-6 -3 4 4 18 17 32 l23 25 -133 0 c-125 0 -133 -1 -112 -16 12 -8 20 -20 16
-25 -4 -6 -12 -5 -22 5 -15 13 -20 13 -36 0 -33 -24 -43 -15 -13 11 l28 25
-73 -1 c-54 0 -67 -3 -50 -9 12 -5 22 -14 22 -20 0 -7 -7 -7 -21 1 -12 6 -24
7 -28 3 -3 -5 -17 -18 -30 -29 -28 -23 -20 -4 12 33 l20 22 -71 0 -72 0 0
-640z m475 610 c18 -20 18 -21 -1 -14 -10 4 -24 11 -30 15 -6 5 -19 2 -30 -6
-28 -21 -37 -18 -17 5 22 26 55 26 78 0z m513 8 c-2 -6 -15 -18 -28 -27 -20
-14 -23 -14 -15 -1 22 36 52 56 43 28z m57 -8 c15 -16 15 -20 3 -20 -8 0 -23
9 -33 20 -15 16 -15 20 -3 20 8 0 23 -9 33 -20z m-980 -16 c11 -17 13 -25 4
-22 -16 5 -44 48 -31 48 5 0 17 -12 27 -26z m-18 -77 c-13 -20 -13 -26 -1 -42
19 -26 9 -32 -16 -10 -25 23 -25 33 2 62 26 28 36 22 15 -10z m536 16 c-7 -2
-19 -2 -25 0 -7 3 -2 5 12 5 14 0 19 -2 13 -5z m140 0 c-7 -2 -19 -2 -25 0 -7
3 -2 5 12 5 14 0 19 -2 13 -5z m-223 -14 c-14 -10 66 -6 129 6 12 2 58 -2 103
-10 44 -8 85 -12 91 -8 5 3 7 1 4 -4 -4 -6 7 -17 26 -24 17 -7 36 -15 41 -17
5 -3 5 1 1 8 -6 9 -3 9 14 1 25 -14 28 -23 4 -14 -16 6 -16 5 -4 -10 8 -10 21
-17 30 -16 29 3 41 -1 41 -12 0 -8 -6 -7 -17 2 -16 13 -17 12 -5 -3 8 -9 19
-15 26 -12 7 3 19 -3 27 -13 13 -17 13 -17 -6 -3 -20 14 -20 14 -1 -7 10 -13
23 -20 29 -16 5 3 7 2 4 -3 -8 -13 9 -39 25 -39 7 -1 12 -7 10 -13 -3 -18 17
-54 28 -47 5 3 12 0 16 -6 4 -8 3 -9 -4 -5 -15 9 -15 6 3 -38 9 -20 19 -35 23
-32 4 2 7 -6 8 -17 1 -12 5 -47 10 -77 9 -65 10 -109 1 -168 -10 -66 -18 -92
-28 -92 -5 0 -9 -8 -9 -17 0 -10 -9 -31 -19 -47 l-20 -30 -6 25 c-3 14 -19 30
-36 38 -16 7 -29 19 -29 27 0 8 -8 14 -17 14 -9 0 -13 3 -10 6 6 6 -20 62 -34
74 -3 3 -8 12 -11 21 -7 17 -52 20 -76 5 -8 -5 -10 -1 -5 10 5 13 3 16 -10 11
-9 -3 -19 -1 -23 5 -4 7 -3 8 4 4 7 -4 12 -1 12 7 0 8 -7 18 -16 21 -8 3 -12
2 -9 -4 3 -6 2 -10 -3 -10 -5 0 -12 14 -16 30 l-6 31 -27 -18 c-16 -9 -25 -13
-21 -8 4 4 2 15 -5 23 -10 13 -9 14 3 7 8 -4 3 3 -12 18 -26 25 -38 44 -20 33
5 -3 9 9 9 27 0 18 -2 26 -4 20 -4 -10 -8 -9 -19 1 -8 8 -14 17 -14 20 0 7 65
0 79 -8 15 -10 24 50 10 71 -10 16 -20 19 -63 15 -28 -2 -48 -1 -45 3 4 3 4
18 0 32 -5 20 -14 26 -36 28 -17 2 -24 1 -17 -2 6 -2 12 -15 12 -28 0 -20 -21
-34 -52 -35 -9 0 -4 28 7 37 4 4 5 3 2 -4 -4 -6 -1 -10 8 -9 22 3 31 16 11 16
-11 0 -16 5 -13 13 3 8 -1 14 -8 14 -7 0 -11 -6 -8 -14 4 -11 1 -12 -20 -2
-14 6 -23 17 -21 23 2 6 -11 19 -30 30 -18 10 -33 25 -32 33 1 10 -8 17 -22
18 -31 2 -47 28 -24 37 13 5 12 7 -8 8 -16 1 -20 4 -10 7 8 3 26 14 40 23 14
9 31 15 38 13 6 -3 12 0 12 6 0 6 -6 11 -12 11 -9 0 -8 4 2 10 20 13 39 12 20
-1z m-120 -53 c0 -2 -7 -7 -16 -10 -8 -3 -12 -2 -9 4 6 10 25 14 25 6z m-336
-97 c-16 -18 -16 -20 1 -39 10 -11 14 -20 10 -20 -12 0 -45 31 -45 43 0 16 32
47 42 41 5 -3 2 -15 -8 -25z m506 -99 c0 -5 -5 -10 -11 -10 -5 0 -7 5 -4 10 3
6 8 10 11 10 2 0 4 -4 4 -10z m-504 -27 c-12 -24 -12 -30 1 -50 18 -27 8 -30
-19 -6 -23 21 -23 32 4 60 28 30 32 29 14 -4z m493 -21 c-7 -3 -20 -10 -28
-16 -12 -9 -12 -8 -1 11 8 13 20 19 29 15 13 -5 13 -6 0 -10z m231 -13 c0 -10
-3 -19 -7 -19 -5 0 -8 11 -8 24 0 13 3 22 8 19 4 -2 7 -13 7 -24z m-185 -39
c3 -6 -1 -7 -9 -4 -18 7 -21 14 -7 14 6 0 13 -4 16 -10z m106 -52 c-11 -11
-13 -11 -7 0 4 7 1 15 -8 18 -9 3 -13 11 -10 16 4 6 13 4 22 -6 14 -13 14 -18
3 -28z m476 10 c-3 -8 -6 -5 -6 6 -1 11 2 17 5 13 3 -3 4 -12 1 -19z m-552 2
c3 -6 -1 -7 -9 -4 -18 7 -21 14 -7 14 6 0 13 -4 16 -10z m-562 -17 c-3 -10
-10 -24 -16 -30 -6 -9 -4 -21 7 -38 22 -33 20 -42 -4 -20 -32 29 -35 54 -9 81
27 29 30 30 22 7z m597 -33 c0 -22 -4 -40 -10 -40 -11 0 -14 63 -3 73 11 12
13 8 13 -33z m36 -15 c0 -14 -6 -25 -14 -25 -8 0 -10 5 -5 13 4 6 8 15 9 20 5
26 10 23 10 -8z m491 3 c-3 -8 -6 -5 -6 6 -1 11 2 17 5 13 3 -3 4 -12 1 -19z
m-1124 -95 c-3 -10 -11 -24 -16 -31 -7 -9 -6 -17 1 -24 7 -7 12 -19 12 -27 -1
-12 -6 -10 -20 8 -25 29 -25 32 1 65 24 30 31 33 22 9z m595 -58 c-1 -19 -4
-32 -7 -30 -8 8 -6 65 2 65 4 0 7 -16 5 -35z m529 3 c-3 -7 -5 -2 -5 12 0 14
2 19 5 13 2 -7 2 -19 0 -25z m-16 -75 c-12 -20 -14 -14 -5 12 4 9 9 14 11 11
3 -2 0 -13 -6 -23z m-1116 -33 c-15 -16 -16 -22 -5 -35 17 -21 5 -31 -15 -12
-26 26 -12 67 24 67 11 0 10 -4 -4 -20z m642 -6 c-3 -3 -12 -4 -19 -1 -8 3 -5
6 6 6 11 1 17 -2 13 -5z m583 -32 c0 -5 -9 -17 -20 -27 -22 -20 -26 -14 -10
16 11 19 30 26 30 11z m-205 -32 c-3 -5 -1 -10 6 -10 7 0 10 -3 6 -6 -9 -9
-28 6 -22 17 4 5 8 9 11 9 3 0 2 -4 -1 -10z m-1015 -58 c0 -4 -5 -13 -12 -20
-9 -9 -7 -16 7 -32 14 -16 15 -20 4 -20 -34 0 -50 39 -26 65 13 16 27 19 27 7z
m945 -92 c-3 -5 -12 -10 -18 -10 -7 0 -6 4 3 10 19 12 23 12 15 0z m-949 -59
c-15 -17 -13 -51 3 -51 4 0 8 -7 8 -15 0 -18 -22 -2 -38 27 -12 23 5 58 28 58
15 0 15 -2 -1 -19z m874 5 c0 -2 -7 -7 -16 -10 -8 -3 -12 -2 -9 4 6 10 25 14
25 6z m-857 -126 c-36 -41 -52 -38 -16 4 15 18 31 31 35 29 4 -2 -4 -17 -19
-33z m1197 -19 c-1 -11 -8 -8 -25 12 -33 37 -32 57 0 27 14 -13 25 -31 25 -39z
m-299 32 c13 -16 12 -17 -3 -4 -17 13 -22 21 -14 21 2 0 10 -8 17 -17z"/>
<path d="M760 716 c0 -2 7 -7 16 -10 8 -3 12 -2 9 4 -6 10 -25 14 -25 6z"/>
<path d="M755 690 c-3 -5 -1 -10 4 -10 6 0 11 5 11 10 0 6 -2 10 -4 10 -3 0
-8 -4 -11 -10z"/>
<path d="M1065 460 c-3 -5 -1 -10 4 -10 6 0 11 5 11 10 0 6 -2 10 -4 10 -3 0
-8 -4 -11 -10z"/>
</g>
</svg>
