<?xml version="1.0" encoding="UTF-8"?>
<svg version="1.1" xmlns="http://www.w3.org/2000/svg" width="270" height="68">
<path d="M0 0 C89.1 0 178.2 0 270 0 C270 22.44 270 44.88 270 68 C180.9 68 91.8 68 0 68 C0 45.56 0 23.12 0 0 Z " fill="#F9F9F9" transform="translate(0,0)"/>
<path d="M0 0 C89.1 0 178.2 0 270 0 C270 22.44 270 44.88 270 68 C180.9 68 91.8 68 0 68 C0 45.56 0 23.12 0 0 Z M4 6 C4 13.92 4 21.84 4 30 C5.92915638 27.19484658 5.92915638 27.19484658 7.15625 24.9140625 C10.8900144 18.55363826 14.89589512 15.1625731 22 13 C28.00698893 12.09011785 32.86518195 12.53698318 38 16 C43.78585679 21.27155841 43.78585679 21.27155841 44.2734375 25.20703125 C44.55026203 32.30864514 44.55026203 32.30864514 41.5625 36.0625 C40.716875 36.701875 39.87125 37.34125 39 38 C38.67 38.33 38.34 38.66 38 39 C36.189715 39.09879565 34.37547273 39.12971514 32.5625 39.125 C31.57378906 39.12757812 30.58507812 39.13015625 29.56640625 39.1328125 C27 39 27 39 25 38 C21.95826106 37.83329727 21.95826106 37.83329727 19 38 C18.505 38.495 18.505 38.495 18 39 C18.15161604 43.83912002 18.15161604 43.83912002 20.72265625 47.69921875 C24.91132964 50.09172002 29.32850301 49.57584935 34 49 C39.97187303 47.22050248 43.39521664 43.95657711 47 39 C44.33494474 45.83385677 41.80938347 50.75148139 35.2734375 54.609375 C31.59870902 56.17047684 28.97725294 56.40116614 25 56.375 C23.824375 56.38273437 22.64875 56.39046875 21.4375 56.3984375 C17.63681588 55.95790366 15.24231514 55.00714747 12 53 C8.41514199 48.05870922 7.0984727 44.10530746 7 38 C8.21634332 35.0551688 9.1046547 33.55266742 11.81542969 31.87939453 C14.30185736 30.87848791 16.09272131 30.7704195 18.765625 30.8046875 C19.65507812 30.81113281 20.54453125 30.81757813 21.4609375 30.82421875 C22.38132812 30.84097656 23.30171875 30.85773437 24.25 30.875 C25.18585937 30.88402344 26.12171875 30.89304687 27.0859375 30.90234375 C29.39088657 30.92586364 31.6953116 30.95873147 34 31 C34.19815834 28.09920119 34.19815834 28.09920119 34 25 C30.65669666 21.65669666 27.72613219 20.71301538 23.125 20.5 C16.68562722 20.78123767 12.00232963 22.83959171 7.625 27.5625 C7.08875 28.366875 6.5525 29.17125 6 30 C5.34 30.99 4.68 31.98 4 33 C4 43.56 4 54.12 4 65 C90.79 65 177.58 65 267 65 C267 45.53 267 26.06 267 6 C180.21 6 93.42 6 4 6 Z " fill="#050505" transform="translate(0,0)"/>
<path d="M0 0 C4.05752783 2.73647225 6.97836104 5.74879157 9.6875 9.8125 C10.39101326 14.63892815 10.42237541 18.5961545 7.875 22.8125 C4.14957195 26.21860564 2.09511766 27.072798 -2.875 27 C-3.84566406 26.99355469 -4.81632812 26.98710938 -5.81640625 26.98046875 C-8.3125 26.8125 -8.3125 26.8125 -10.3125 25.8125 C-12.31210012 25.772508 -14.31297242 25.76903201 -16.3125 25.8125 C-16.3125 28.1225 -16.3125 30.4325 -16.3125 32.8125 C-11.48770876 35.63071918 -6.75300158 35.40779034 -1.3125 34.8125 C5.1635434 32.9917942 8.23973686 29.41511509 11.6875 23.8125 C12.6875 25.8125 12.6875 25.8125 12.12109375 27.765625 C8.69320523 35.66993266 4.74782957 40.41918876 -3.3125 43.8125 C-9.24050116 44.56796283 -15.96304794 45.00503878 -21.4375 42.25 C-25.94996865 38.42421137 -28.17910114 34.56144708 -29.3125 28.75 C-29.3125 24.04897284 -28.38979329 22.30564373 -25.3125 18.8125 C-18.52361382 14.59624438 -8.86182417 16.91300606 -1.3125 17.8125 C-2.10632512 13.04839755 -2.10632512 13.04839755 -5.09375 9.609375 C-10.49307113 7.6701822 -16.40511145 8.06715554 -21.625 10.375 C-25.77246202 12.70531842 -27.8470651 15.80616829 -30.3125 19.8125 C-31.53725311 16.13824068 -31.01159744 15.40391352 -29.375 12 C-26.1322861 5.81264897 -21.84340606 2.85670877 -15.9375 -0.5625 C-10.49563627 -1.85818184 -5.27677143 -1.89167278 0 0 Z " fill="#1E5AF6" transform="translate(35.3125,13.1875)"/>
<path d="M0 0 C89.1 0 178.2 0 270 0 C270 0.99 270 1.98 270 3 C181.23 3 92.46 3 1 3 C1 24.45 1 45.9 1 68 C0.67 68 0.34 68 0 68 C0 45.56 0 23.12 0 0 Z " fill="#ECECEC" transform="translate(0,0)"/>
<path d="M0 0 C2.31 0 4.62 0 7 0 C9.97 5.28 12.94 10.56 16 16 C16.33 10.72 16.66 5.44 17 0 C18.65 0 20.3 0 22 0 C22 8.91 22 17.82 22 27 C19.69 27 17.38 27 15 27 C11.04 20.07 11.04 20.07 7 13 C6.67 17.62 6.34 22.24 6 27 C4.02 27 2.04 27 0 27 C0 18.09 0 9.18 0 0 Z " fill="#080808" transform="translate(140,25)"/>
<path d="M0 0 C13 0 13 0 18 3 C20.4915904 6.7373856 20.45793285 8.57331583 20 13 C17.86320715 16.38939556 16.8225233 17.72582557 13 19 C10.66700175 19.03954234 8.33291811 19.04401732 6 19 C6 21.64 6 24.28 6 27 C4.02 27 2.04 27 0 27 C0 18.09 0 9.18 0 0 Z " fill="#0D0D0D" transform="translate(166,25)"/>
<path d="M0 0 C3.16025526 1.80586015 4.57721965 2.82922364 5.8125 6.25 C5.874375 6.8275 5.93625 7.405 6 8 C3.1875 8.1875 3.1875 8.1875 0 8 C-0.495 7.484375 -0.99 6.96875 -1.5 6.4375 C-1.995 5.963125 -2.49 5.48875 -3 5 C-6.11993606 5.07542341 -6.11993606 5.07542341 -9 6 C-10.30089831 8.60179663 -10.16840078 10.5969188 -10.1875 13.5 C-10.20876953 14.96953125 -10.20876953 14.96953125 -10.23046875 16.46875 C-10.25680034 19.169918 -10.25680034 19.169918 -8 21 C-4.91652174 21.16681109 -4.91652174 21.16681109 -2 21 C-1.34 19.35 -0.68 17.7 0 16 C-1.65 16 -3.3 16 -5 16 C-5 14.35 -5 12.7 -5 11 C-1.37 11 2.26 11 6 11 C6 16.28 6 21.56 6 27 C4.68 27 3.36 27 2 27 C1.67 26.01 1.34 25.02 1 24 C0.484375 24.495 -0.03125 24.99 -0.5625 25.5 C-3.93763128 27.57700386 -6.09800946 27.47919182 -10 27 C-14.05621283 24.5662723 -15.54081247 22.41596226 -17 18 C-17.60798336 13.60332036 -18.05252116 9.01504981 -15.94921875 4.98828125 C-11.37172642 -0.58842769 -6.83912374 -0.78499376 0 0 Z " fill="#0C0C0C" transform="translate(80,25)"/>
<path d="M0 0 C1.98 0 3.96 0 6 0 C6 3.63 6 7.26 6 11 C9.3 11 12.6 11 16 11 C16 7.37 16 3.74 16 0 C17.98 0 19.96 0 22 0 C22 8.91 22 17.82 22 27 C20.02 27 18.04 27 16 27 C16 23.37 16 19.74 16 16 C12.7 16 9.4 16 6 16 C6 19.63 6 23.26 6 27 C4.02 27 2.04 27 0 27 C0 18.09 0 9.18 0 0 Z " fill="#0C0C0C" transform="translate(236,25)"/>
<path d="M0 0 C1.98 0 3.96 0 6 0 C8.61650182 5.52372607 10.80419497 11.08785327 12.75 16.875 C12.97260498 17.52927979 13.19520996 18.18355957 13.42456055 18.85766602 C14.36359939 21.70130699 15 23.9836706 15 27 C13.02 27 11.04 27 9 27 C8.67 25.02 8.34 23.04 8 21 C5.03 21.33 2.06 21.66 -1 22 C-1.99 24.475 -1.99 24.475 -3 27 C-4.98 27 -6.96 27 -9 27 C-6.03 18.09 -3.06 9.18 0 0 Z " fill="#0D0D0D" transform="translate(196,25)"/>
<path d="M0 0 C1.4540625 0.0309375 1.4540625 0.0309375 2.9375 0.0625 C4.44264646 4.18564058 5.94074372 8.31130702 7.4375 12.4375 C7.86675781 13.613125 8.29601562 14.78875 8.73828125 16 C9.14433594 17.12148438 9.55039063 18.24296875 9.96875 19.3984375 C10.34580078 20.43532715 10.72285156 21.4722168 11.11132812 22.54052734 C11.9375 25.0625 11.9375 25.0625 11.9375 27.0625 C9.9575 27.0625 7.9775 27.0625 5.9375 27.0625 C5.2775 25.4125 4.6175 23.7625 3.9375 22.0625 C0.9675 21.7325 -2.0025 21.4025 -5.0625 21.0625 C-5.3925 23.0425 -5.7225 25.0225 -6.0625 27.0625 C-8.0425 27.0625 -10.0225 27.0625 -12.0625 27.0625 C-10.93105107 20.83953091 -9.10136555 15.01388076 -7 9.0625 C-6.7304248 8.29623291 -6.46084961 7.52996582 -6.18310547 6.74047852 C-3.79453933 0.07743958 -3.79453933 0.07743958 0 0 Z " fill="#0D0D0D" transform="translate(126.0625,24.9375)"/>
<path d="M0 0 C2.375 2.375 2.375 2.375 2.5234375 5.5234375 C2.47445312 6.46445312 2.42546875 7.40546875 2.375 8.375 C1.79532471 8.35928955 1.21564941 8.3435791 0.6184082 8.32739258 C-2.02512739 8.26477209 -4.66850655 8.22592482 -7.3125 8.1875 C-8.22451172 8.16236328 -9.13652344 8.13722656 -10.07617188 8.11132812 C-16.85742508 8.0218774 -16.85742508 8.0218774 -22.625 11.375 C-24.45129794 14.44180799 -24.45129794 14.44180799 -25.625 17.375 C-26.285 17.375 -26.945 17.375 -27.625 17.375 C-28.21067459 12.6896033 -27.84782322 10.10983723 -25.125 6.1875 C-18.60071081 -1.66298816 -9.46592948 -4.2433477 0 0 Z " fill="#F5F7FD" transform="translate(31.625,22.625)"/>
<path d="M0 0 C1.98 0 3.96 0 6 0 C7.65 3.3 9.3 6.6 11 10 C13.00993705 7.99006295 13.89940919 6.40788768 15.125 3.875 C15.47820312 3.15054687 15.83140625 2.42609375 16.1953125 1.6796875 C16.46085937 1.12539063 16.72640625 0.57109375 17 0 C18.98 0 20.96 0 23 0 C21.85700498 2.64709291 20.71075628 5.29269052 19.5625 7.9375 C19.23701172 8.69224609 18.91152344 9.44699219 18.57617188 10.22460938 C16.11328125 15.88671875 16.11328125 15.88671875 15 17 C14.76712992 18.68183948 14.58735834 20.3712416 14.4375 22.0625 C14.35371094 22.98160156 14.26992187 23.90070312 14.18359375 24.84765625 C14.12300781 25.55792969 14.06242187 26.26820312 14 27 C12.35 27 10.7 27 9 27 C9 25.700625 9 24.40125 9 23.0625 C8.24292175 14.73463928 3.73655808 7.33693182 0 0 Z " fill="#090909" transform="translate(89,25)"/>
<path d="M0 0 C6.6 0 13.2 0 20 0 C20 1.65 20 3.3 20 5 C17.69 5 15.38 5 13 5 C13 12.26 13 19.52 13 27 C11.02 27 9.04 27 7 27 C7 19.74 7 12.48 7 5 C4.69 5 2.38 5 0 5 C0 3.35 0 1.7 0 0 Z " fill="#0C0C0C" transform="translate(213,25)"/>
<path d="M0 0 C5.75 -0.125 5.75 -0.125 8 1 C8.125 3.875 8.125 3.875 8 7 C6 9 6 9 2.875 9.125 C1.451875 9.063125 1.451875 9.063125 0 9 C0 6.03 0 3.06 0 0 Z " fill="#F4F4F4" transform="translate(172,30)"/>
<path d="M0 0 C2.5654594 2.5654594 2.54046087 4.47686668 3 8 C1.35 8 -0.3 8 -2 8 C-1.125 1.125 -1.125 1.125 0 0 Z " fill="#D9D9D9" transform="translate(199,33)"/>
<path d="M0 0 C0.66 0.33 1.32 0.66 2 1 C2.40729228 3.32156597 2.74438677 5.6568787 3 8 C1.35 8 -0.3 8 -2 8 C-1.125 2.25 -1.125 2.25 0 0 Z " fill="#D9D9D9" transform="translate(125,33)"/>
<path d="M0 0 C0.886875 -0.01417969 1.77375 -0.02835938 2.6875 -0.04296875 C5 0.1875 5 0.1875 7 2.1875 C2.28961976 3.75762675 -2.29480905 2.50495347 -7 1.1875 C-4.52224905 -0.05137548 -2.76346293 0.02008331 0 0 Z " fill="#2F6BFB" transform="translate(19,29.8125)"/>
</svg>
