<?xml version="1.0" standalone="no"?>
<!DOCTYPE svg PUBLIC "-//W3C//DTD SVG 20010904//EN"
 "http://www.w3.org/TR/2001/REC-SVG-20010904/DTD/svg10.dtd">
<svg version="1.0" xmlns="http://www.w3.org/2000/svg"
 width="128.000000pt" height="128.000000pt" viewBox="0 0 128.000000 128.000000"
 preserveAspectRatio="xMidYMid meet">

<g transform="translate(0.000000,128.000000) scale(0.100000,-0.100000)"
fill="#000000" stroke="none">
<path d="M0 640 l0 -640 640 0 640 0 0 65 c0 55 -2 63 -16 58 -13 -5 -15 -2
-10 14 4 13 1 27 -9 36 -8 9 -11 18 -6 22 5 3 17 -5 25 -17 15 -21 16 -20 16
36 l0 58 -29 -24 c-18 -13 -28 -29 -25 -38 4 -11 2 -12 -7 -3 -9 9 -5 20 15
46 27 35 27 36 11 69 l-16 33 25 -28 26 -28 0 62 0 61 -20 -23 c-22 -28 -27
-14 -5 15 13 18 13 22 -5 38 -11 10 -20 24 -20 30 0 6 11 1 25 -12 l25 -23 0
50 c0 51 0 51 -24 40 -13 -7 -22 -16 -19 -21 4 -5 1 -6 -6 -1 -9 5 -7 12 8 26
26 24 26 24 0 60 -24 34 -15 38 18 7 l23 -21 0 52 c0 48 -1 51 -19 41 -30 -15
-36 -12 -17 9 17 19 17 21 -11 58 l-28 38 37 -28 38 -28 0 52 0 52 -25 -23
c-19 -18 -25 -20 -25 -8 0 8 9 23 20 33 20 18 20 19 2 39 -34 37 -36 52 -4 22
l32 -30 0 53 0 52 -32 -22 c-32 -23 -31 -11 4 27 18 20 18 21 -2 39 -11 10
-17 22 -13 28 3 5 14 -1 24 -14 l19 -24 0 60 0 60 -25 -29 c-16 -19 -25 -24
-25 -14 0 8 9 23 20 33 20 18 20 18 -7 47 -29 30 -21 37 15 12 l22 -15 0 60 0
61 -64 0 -64 0 30 -31 31 -30 23 22 c31 29 39 21 11 -11 -28 -32 -41 -32 -72
3 -29 31 -38 33 -54 13 -6 -8 -22 -16 -34 -19 -19 -5 -17 -2 11 23 l32 30 -61
0 -61 0 23 -19 c13 -11 21 -23 17 -27 -5 -4 -17 1 -28 11 -20 18 -21 18 -45
-5 -18 -17 -25 -19 -25 -9 0 8 12 22 28 31 l27 17 -69 1 -69 0 23 -25 c13 -14
19 -25 12 -25 -6 0 -19 11 -30 25 l-20 25 -272 0 c-268 0 -273 0 -256 -19 10
-11 13 -22 8 -25 -5 -3 -15 1 -22 9 -10 12 -15 12 -36 -2 -34 -22 -41 -10 -8
16 l27 21 -74 -1 c-55 0 -68 -3 -51 -9 12 -5 22 -14 22 -20 0 -8 -6 -8 -20 0
-17 9 -26 6 -52 -19 -35 -32 -57 -29 -78 9 -15 28 0 25 25 -5 l20 -26 28 36
28 35 -71 0 -70 0 0 -640z m430 626 c0 -2 -8 -10 -17 -17 -16 -13 -17 -12 -4
4 13 16 21 21 21 13z m380 -39 c29 -10 36 -18 38 -43 2 -22 11 -35 28 -42 45
-21 64 -68 63 -157 0 -44 -4 -89 -9 -100 -7 -17 -9 -16 -9 9 -2 82 -56 166
-105 166 -15 0 -43 -7 -63 -15 -33 -14 -38 -14 -54 1 -31 28 -227 21 -274 -10
-30 -20 -65 -73 -65 -98 0 -10 -4 -18 -10 -18 -17 0 -12 177 6 216 27 56 90
86 198 94 143 11 218 10 256 -3z m-764 -73 c-14 -14 -14 -18 -1 -37 23 -33 18
-43 -10 -17 -14 13 -25 28 -25 34 0 15 44 59 48 47 2 -6 -4 -18 -12 -27z m-1
-144 c-15 -17 -15 -21 -3 -39 8 -12 18 -18 23 -13 5 4 5 1 1 -6 -6 -11 -13 -8
-32 9 -13 12 -24 27 -24 32 0 17 32 47 42 41 5 -3 2 -14 -7 -24z m625 -2 c1
-36 16 -39 73 -13 70 32 93 27 118 -28 14 -33 19 -66 19 -153 0 -143 -16 -191
-85 -261 -96 -95 -203 -98 -303 -8 -63 57 -88 115 -97 227 -12 163 16 233 98
241 103 9 177 7 177 -5z m327 -20 c-3 -8 -6 -5 -6 6 -1 11 2 17 5 13 3 -3 4
-12 1 -19z m-952 -108 c-14 -28 -14 -32 0 -46 23 -23 9 -31 -15 -9 -25 23 -25
33 2 62 29 31 32 29 13 -7z m5 -139 c0 -6 -4 -13 -10 -16 -13 -8 -13 -21 3
-37 6 -7 13 -20 15 -28 3 -11 -2 -9 -17 4 -27 25 -35 54 -21 71 14 17 30 20
30 6z m-4 -147 c-16 -24 -16 -27 -1 -44 10 -11 12 -20 6 -24 -9 -6 -41 29 -41
45 0 11 42 60 47 55 3 -3 -2 -17 -11 -32z m586 -154 c26 0 70 9 98 19 l50 19
0 -39 0 -39 -140 0 -140 0 0 40 0 39 43 -19 c23 -11 63 -20 89 -20z m-587 10
c-17 -19 -17 -21 0 -40 20 -22 9 -26 -17 -6 -30 22 -16 66 21 66 11 0 10 -4
-4 -20z m942 -46 c-3 -3 -12 -4 -19 -1 -8 3 -5 6 6 6 11 1 17 -2 13 -5z m44
-70 c92 -43 152 -129 164 -237 l7 -57 -562 0 -561 0 6 57 c16 129 96 225 212
252 21 5 184 8 363 8 308 -2 327 -3 371 -23z m-985 -20 c-20 -19 -20 -28 -1
-44 25 -21 17 -32 -10 -14 -29 19 -32 41 -7 60 24 19 37 17 18 -2z m4 -135 c0
-5 -4 -8 -9 -5 -14 9 -20 -31 -7 -46 6 -7 3 -6 -8 3 -15 14 -16 21 -7 38 12
22 31 29 31 10z"/>
</g>
</svg>
